<mxfile host="app.diagrams.net" modified="2023-07-14T03:18:19.889Z" agent="Mozilla/5.0 (Windows NT 10.0; Win64; x64) AppleWebKit/537.36 (KHTML, like Gecko) Chrome/114.0.0.0 Safari/537.36" etag="TyzdIhk74DkBxT_mjy9d" version="21.5.0" type="github">
  <diagram name="第 1 页" id="bBvsN8iroXIrdniodsAV">
    <mxGraphModel dx="1434" dy="764" grid="0" gridSize="10" guides="1" tooltips="1" connect="1" arrows="1" fold="1" page="1" pageScale="1" pageWidth="827" pageHeight="1169" math="0" shadow="0">
      <root>
        <mxCell id="0" />
        <mxCell id="1" parent="0" />
        <mxCell id="igFqEQNSGW9ujfR-BA13-3" value="" style="edgeStyle=orthogonalEdgeStyle;rounded=0;orthogonalLoop=1;jettySize=auto;html=1;" edge="1" parent="1" source="igFqEQNSGW9ujfR-BA13-1" target="igFqEQNSGW9ujfR-BA13-2">
          <mxGeometry relative="1" as="geometry" />
        </mxCell>
        <mxCell id="igFqEQNSGW9ujfR-BA13-1" value="开始" style="strokeWidth=2;html=1;shape=mxgraph.flowchart.start_2;whiteSpace=wrap;aspect=fixed;" vertex="1" parent="1">
          <mxGeometry x="580" y="40" width="50" height="50" as="geometry" />
        </mxCell>
        <mxCell id="igFqEQNSGW9ujfR-BA13-2" value="用人部门发起招聘需求" style="whiteSpace=wrap;html=1;strokeWidth=2;" vertex="1" parent="1">
          <mxGeometry x="555" y="112" width="100" height="30" as="geometry" />
        </mxCell>
        <mxCell id="igFqEQNSGW9ujfR-BA13-6" value="用人部门发起招聘需求" style="whiteSpace=wrap;html=1;strokeWidth=2;" vertex="1" parent="1">
          <mxGeometry x="555" y="168" width="100" height="30" as="geometry" />
        </mxCell>
      </root>
    </mxGraphModel>
  </diagram>
</mxfile>
